<svg width="32" height="32" viewBox="0 0 32 32" fill="none" xmlns="http://www.w3.org/2000/svg">
<g clip-path="url(#clip0)">
<path d="M-0.100026 9.80322L1.70244 8.00075H8.78981L10.0148 9.22573V7.82575H10.8023V12.2007H10.0148V10.3107L8.40482 8.70074H3.9249V21.3005H6.11236L7.42483 19.988V15.5256H6.02486V14.8256H12.5872V15.5256H11.3623V22.0005H9.1398L7.82733 20.6705L6.49735 22.0005H1.70244L-0.100026 20.198V9.80322ZM31.2062 8.70074V21.3005H32.4312V22.0005H25.4313V21.3005H27.1813V8.80573L23.7338 22.0005H19.6214L15.824 8.73574V21.3005H17.574V22.0005H13.6365V21.3005H15.0365V8.70074H13.6365V8.00075H19.7264L23.3139 20.5305L26.5863 8.00075H32.4312V8.70074H31.2062Z" fill="#680097"/>
</g>
<defs>
<clipPath id="clip0">
<rect width="32" height="32" fill="white"/>
</clipPath>
</defs>
</svg>
