<svg width="12" height="12" viewBox="0 0 12 12" fill="none" xmlns="http://www.w3.org/2000/svg">
<path fill-rule="evenodd" clip-rule="evenodd" d="M5.68153 1.31304L0.800026 9.93754C0.767366 9.99409 0.750038 10.0582 0.749759 10.1235C0.74948 10.1888 0.766259 10.253 0.798435 10.3099C0.830612 10.3667 0.877069 10.4141 0.933211 10.4475C0.989353 10.4808 1.05323 10.499 1.11853 10.5H10.8815C10.9468 10.499 11.0107 10.4808 11.0668 10.4475C11.123 10.4141 11.1694 10.3667 11.2016 10.3099C11.2338 10.253 11.2506 10.1888 11.2503 10.1235C11.25 10.0582 11.2327 9.99409 11.2 9.93754L6.31853 1.31304C6.28694 1.25628 6.24076 1.20899 6.18476 1.17607C6.12876 1.14315 6.06498 1.12579 6.00003 1.12579C5.93507 1.12579 5.87129 1.14315 5.81529 1.17607C5.7593 1.20899 5.71311 1.25628 5.68153 1.31304Z" stroke="black" stroke-width="1.5" stroke-linecap="round" stroke-linejoin="round"/>
</svg>
