<svg width="32" height="32" viewBox="0 0 32 32" fill="none" xmlns="http://www.w3.org/2000/svg">
<g clip-path="url(#clip0)">
<circle cx="16" cy="16" r="32.5" fill="black"/>
<path d="M15.5857 21.168C14.9697 21.168 14.4004 21.014 13.8777 20.706C13.355 20.398 12.9397 19.9827 12.6317 19.46C12.3237 18.9373 12.1697 18.368 12.1697 17.752V14.49C12.1697 13.874 12.3237 13.3047 12.6317 12.782C12.9397 12.2593 13.355 11.844 13.8777 11.536C14.4004 11.228 14.9697 11.074 15.5857 11.074C16.099 11.074 16.5797 11.1627 17.0277 11.34C17.4757 11.5173 17.863 11.7693 18.1897 12.096C18.2364 12.1333 18.2597 12.1893 18.2597 12.264C18.2597 12.3293 18.2364 12.39 18.1897 12.446C18.1244 12.5207 17.9937 12.656 17.7977 12.852C17.7324 12.8987 17.667 12.922 17.6017 12.922C17.527 12.922 17.457 12.8893 17.3917 12.824C16.9157 12.376 16.3184 12.152 15.5997 12.152C15.189 12.152 14.8064 12.2593 14.4517 12.474C14.1064 12.6887 13.831 12.978 13.6257 13.342C13.4204 13.6967 13.3177 14.0793 13.3177 14.49V17.752C13.3177 18.1627 13.4204 18.55 13.6257 18.914C13.831 19.2687 14.1064 19.5533 14.4517 19.768C14.8064 19.9827 15.189 20.09 15.5997 20.09C16.0104 20.09 16.3884 19.9873 16.7337 19.782C17.079 19.5767 17.3544 19.3013 17.5597 18.956C17.765 18.6013 17.8677 18.2187 17.8677 17.808V16.702H15.8937C15.8377 16.702 15.791 16.6833 15.7537 16.646C15.7164 16.6087 15.6977 16.562 15.6977 16.506V15.862C15.6977 15.806 15.7164 15.7593 15.7537 15.722C15.791 15.6847 15.8377 15.666 15.8937 15.666H18.4837C18.6237 15.666 18.7404 15.7173 18.8337 15.82C18.9364 15.9133 18.9877 16.03 18.9877 16.17V17.752C18.9877 18.368 18.8337 18.9373 18.5257 19.46C18.227 19.9827 17.8164 20.398 17.2937 20.706C16.771 21.014 16.2017 21.168 15.5857 21.168Z" fill="white"/>
</g>
<defs>
<clipPath id="clip0">
<rect width="32" height="32" fill="white"/>
</clipPath>
</defs>
</svg>
