<svg width="32" height="32" viewBox="0 0 32 32" fill="none" xmlns="http://www.w3.org/2000/svg">
<circle cx="16" cy="16" r="16" fill="#35C611"/>
<path d="M11.839 10.4979H14.1251V19.7647H20.6804V21.7695H11.839V10.4979Z" fill="white"/>
<path d="M11.839 10.4979V10.3441C11.7541 10.3441 11.6852 10.4129 11.6852 10.4979H11.839ZM14.1251 10.4979H14.2789C14.2789 10.4129 14.2101 10.3441 14.1251 10.3441V10.4979ZM14.1251 19.7647H13.9712C13.9712 19.8497 14.0401 19.9186 14.1251 19.9186V19.7647ZM20.6804 19.7647H20.8342C20.8342 19.6798 20.7653 19.6109 20.6804 19.6109V19.7647ZM20.6804 21.7695V21.9234C20.7653 21.9234 20.8342 21.8545 20.8342 21.7695H20.6804ZM11.839 21.7695H11.6852C11.6852 21.8545 11.7541 21.9234 11.839 21.9234V21.7695ZM11.839 10.6517H14.1251V10.3441H11.839V10.6517ZM13.9712 10.4979V19.7647H14.2789V10.4979H13.9712ZM14.1251 19.9186H20.6804V19.6109H14.1251V19.9186ZM20.5265 19.7647V21.7695H20.8342V19.7647H20.5265ZM20.6804 21.6157H11.839V21.9234H20.6804V21.6157ZM11.9929 21.7695V10.4979H11.6852V21.7695H11.9929Z" fill="white"/>
</svg>
